<?xml version="1.0" encoding="utf-8"?>
<!-- Generator: Adobe Illustrator 16.0.0, SVG Export Plug-In . SVG Version: 6.00 Build 0)  -->
<!DOCTYPE svg PUBLIC "-//W3C//DTD SVG 1.1//EN" "http://www.w3.org/Graphics/SVG/1.1/DTD/svg11.dtd">
<svg version="1.1" id="Calque_1" xmlns="http://www.w3.org/2000/svg" xmlns:xlink="http://www.w3.org/1999/xlink" x="0px" y="0px"
	 width="1920px" height="1080px" viewBox="0 0 1920 1080" enable-background="new 0 0 1920 1080" xml:space="preserve">
<g>
	<path fill-rule="evenodd" clip-rule="evenodd" d="M894.488,481.005c0,9.088-1.188,18.664,0.255,27.825
		c2.729,17.332,13.437,29.842,29.026,37.003c13.208,6.066,27.364,10.062,41.074,15.044c6.238,2.268,12.59,4.333,18.576,7.156
		c8.869,4.183,13.804,11.341,13.612,21.407c-0.19,10.021-5.628,16.901-14.091,21.388c-14.487,7.68-35.754,4.687-47.444-6.856
		c-4.931-4.868-9.015-10.594-13.779-16.282c-9.543,3.706-19.483,7.439-29.306,11.462c-2.72,1.114-4.039,0.522-5.717-1.739
		c-25.083-33.784-21.527-86.298,7.998-116.501C894.906,480.692,895.252,480.604,894.488,481.005z"/>
	<path fill-rule="evenodd" clip-rule="evenodd" d="M995.894,491.134c10.901-4.417,21.657-8.774,32.327-13.097
		c39.32,38.147,32.622,99.197,2.699,128.247c0.975-6.743,2.988-14.038,2.904-21.309c-0.285-24.819-11.127-43.811-34.214-53.907
		c-12.548-5.487-26.095-8.683-39.171-12.973c-5.676-1.861-11.381-3.672-16.936-5.854c-18.697-7.347-16.568-28.509-4.162-37.8
		c12.243-9.168,32.048-7.571,44.662,4.014C988.143,482.258,991.73,486.659,995.894,491.134z"/>
</g>
</svg>